<?xml version="1.0" standalone="no"?>
<!DOCTYPE svg PUBLIC "-//W3C//DTD SVG 20010904//EN"
 "http://www.w3.org/TR/2001/REC-SVG-20010904/DTD/svg10.dtd">
<svg version="1.0" xmlns="http://www.w3.org/2000/svg"
 width="1068.000000pt" height="1068.000000pt" viewBox="0 0 1068.000000 1068.000000"
 preserveAspectRatio="xMidYMid meet">
<metadata>
Created by potrace 1.14, written by Peter Selinger 2001-2017
</metadata>
<g transform="translate(0.000000,1068.000000) scale(0.100000,-0.100000)"
fill="#000000" stroke="none">
<path d="M20 5505 l0 -5175 5320 0 5320 0 0 5175 0 5175 -5320 0 -5320 0 0
-5175z m8909 620 c297 -41 534 -112 787 -234 237 -115 437 -247 604 -399 l65
-59 -375 -381 c-206 -210 -376 -382 -379 -382 -2 0 -39 34 -83 75 -183 175
-435 299 -713 351 -153 29 -521 26 -662 -4 -194 -42 -393 -127 -543 -233 -171
-120 -348 -334 -438 -530 -55 -119 -109 -291 -134 -427 -28 -160 -31 -486 -4
-646 68 -412 260 -749 555 -972 103 -78 313 -184 431 -218 265 -75 585 -84
875 -24 258 53 496 177 682 354 l63 59 381 -381 381 -381 -74 -66 c-364 -328
-831 -543 -1336 -617 -514 -75 -1035 -30 -1461 127 -927 342 -1562 1157 -1666
2141 -58 548 52 1109 307 1565 397 709 1131 1192 1958 1286 52 6 111 13 130
15 82 10 541 -4 649 -19z m-5344 -965 c291 -500 532 -907 534 -904 2 2 241
410 531 906 l526 903 637 3 c350 1 637 0 637 -3 0 -2 -398 -650 -885 -1438
l-885 -1434 0 -1072 0 -1071 -565 0 -565 0 0 1046 0 1045 -892 1456 c-491 801
-894 1460 -896 1465 -2 4 288 8 645 8 l648 -1 530 -909z"/>
</g>
</svg>
