<?xml version="1.0" standalone="no"?>
<!DOCTYPE svg PUBLIC "-//W3C//DTD SVG 20010904//EN"
 "http://www.w3.org/TR/2001/REC-SVG-20010904/DTD/svg10.dtd">
<svg version="1.0" xmlns="http://www.w3.org/2000/svg"
 width="700.000000pt" height="700.000000pt" viewBox="0 0 700.000000 700.000000"
 preserveAspectRatio="xMidYMid meet">
<metadata>
Created by potrace 1.14, written by Peter Selinger 2001-2017
</metadata>
<g transform="translate(0.000000,700.000000) scale(0.100000,-0.100000)"
fill="#000000" stroke="none">
<path d="M0 3500 l0 -3500 3500 0 3500 0 0 3500 0 3500 -3500 0 -3500 0 0
-3500z m6777 3277 c3 -4 6 -3244 3 -3331 0 -5 -35 24 -77 65 -132 127 -240
205 -399 289 -153 80 -382 157 -519 175 -22 3 -51 7 -64 10 -43 8 -205 17
-311 16 -132 -1 -213 -8 -310 -26 -14 -3 -41 -7 -60 -10 -63 -10 -243 -65
-315 -97 -581 -252 -942 -700 -1050 -1303 -31 -175 -31 -440 1 -640 41 -256
180 -562 351 -775 290 -360 754 -606 1215 -646 138 -12 413 -6 493 11 11 2 43
7 70 10 243 29 429 108 720 306 103 70 127 90 207 165 26 24 48 44 50 44 5 0
0 -812 -5 -817 -6 -6 -6547 -6 -6553 0 -4 3 -7 5847 -4 6499 l0 57 138 3 c225
5 6414 -1 6419 -5z m-1077 -3012 c152 -22 155 -23 269 -61 160 -53 323 -138
448 -231 l52 -39 -143 -145 c-179 -180 -185 -186 -194 -172 -16 26 -181 125
-256 154 -158 62 -265 79 -466 75 -121 -2 -175 -8 -245 -26 -429 -109 -705
-432 -769 -900 -7 -52 -8 -265 -1 -328 42 -372 251 -689 549 -832 176 -84 307
-110 526 -105 160 3 183 6 285 31 130 33 280 103 363 171 37 30 45 33 60 21
38 -30 302 -299 302 -308 0 -12 -200 -144 -294 -194 -124 -67 -226 -103 -352
-125 -279 -49 -560 -47 -784 5 -564 132 -996 551 -1135 1103 -14 53 -27 119
-30 146 -3 28 -8 61 -10 75 -7 38 -7 287 0 350 52 453 278 832 646 1081 222
149 484 244 734 265 44 4 81 7 82 9 10 7 277 -7 363 -20z m1081 -1436 c0 -602
0 -1127 -1 -1168 l0 -74 -306 306 c-169 169 -309 307 -312 307 -3 0 -36 -34
-74 -75 -108 -116 -232 -188 -398 -232 -97 -25 -389 -25 -485 1 -198 52 -346
157 -452 319 -211 323 -194 837 38 1127 125 156 295 252 504 285 47 7 249 8
285 0 13 -2 41 -7 62 -10 148 -22 298 -106 427 -239 40 -42 74 -76 76 -76 1 0
143 142 316 315 172 173 314 313 316 311 3 -2 4 -496 4 -1097z"/>
<path d="M883 3928 c2 -7 50 -87 106 -176 55 -90 101 -167 101 -172 0 -5 3
-10 8 -12 4 -1 14 -15 22 -29 8 -15 141 -232 295 -483 154 -251 287 -469 296
-484 9 -15 95 -155 191 -312 96 -157 179 -294 185 -305 6 -12 9 -286 9 -717
-1 -384 1 -698 4 -699 29 -5 923 -2 927 3 2 5 4 327 5 718 l0 709 217 351
c119 193 221 358 226 368 6 10 24 40 41 67 17 28 87 140 155 250 67 110 223
363 346 562 123 199 223 364 223 368 0 3 -239 4 -532 3 l-532 -3 -27 -47 c-15
-25 -38 -66 -52 -90 -13 -23 -138 -238 -277 -476 l-253 -434 -17 29 c-19 29
-497 852 -559 960 l-36 63 -539 0 c-426 0 -537 -3 -533 -12z m947 -215 c5 -4
101 -168 215 -363 239 -409 244 -418 259 -445 82 -151 261 -444 267 -438 7 7
162 270 224 378 47 84 506 870 510 873 5 5 535 5 541 0 5 -6 8 0 -351 -582
-148 -240 -300 -485 -336 -544 -36 -59 -128 -208 -205 -332 l-139 -224 -1
-636 c-1 -349 -2 -637 -3 -640 -1 -5 -474 -6 -492 -1 -3 0 -5 281 -5 623 l1
622 -89 146 c-49 80 -118 192 -153 248 -35 57 -73 118 -83 135 -9 18 -77 129
-150 247 -73 118 -141 229 -150 245 -10 17 -65 107 -122 200 -210 340 -298
485 -298 489 0 9 60 11 304 9 136 0 252 -5 256 -10z"/>
</g>
</svg>
