<?xml version="1.0" standalone="no"?>
<!DOCTYPE svg PUBLIC "-//W3C//DTD SVG 20010904//EN"
 "http://www.w3.org/TR/2001/REC-SVG-20010904/DTD/svg10.dtd">
<svg version="1.0" xmlns="http://www.w3.org/2000/svg"
 width="700.000000pt" height="700.000000pt" viewBox="0 0 700.000000 700.000000"
 preserveAspectRatio="xMidYMid meet">
<metadata>
Created by potrace 1.14, written by Peter Selinger 2001-2017
</metadata>
<g transform="translate(0.000000,700.000000) scale(0.100000,-0.100000)"
fill="#000000" stroke="none">
<path d="M632 6769 c-201 -26 -375 -203 -402 -410 -13 -100 -13 -5618 0 -5718
28 -211 200 -383 411 -411 100 -13 5618 -13 5718 0 212 28 383 199 411 411 13
100 13 5618 0 5718 -28 212 -199 383 -411 411 -91 12 -5636 11 -5727 -1z
m4523 -1834 c277 -48 506 -161 670 -329 140 -144 222 -315 247 -512 14 -112 7
-142 -42 -167 -31 -16 -62 -17 -287 -15 -307 4 -291 -3 -343 144 -47 131 -83
195 -142 250 -151 141 -472 174 -683 70 -130 -64 -205 -164 -247 -332 -22 -86
-23 -105 -23 -529 0 -387 2 -450 18 -524 47 -218 162 -345 357 -396 85 -23
261 -23 353 -2 80 20 172 65 223 109 56 49 100 125 138 239 22 63 45 113 61
128 l25 26 276 0 276 0 24 -28 c28 -33 31 -81 10 -197 -63 -346 -317 -616
-695 -740 -178 -58 -475 -94 -662 -80 -576 43 -926 328 -1040 845 -46 207 -48
988 -4 1195 108 502 452 798 1000 860 111 12 381 4 490 -15z m-3683 -26 c21
-5 49 -20 63 -32 13 -12 167 -272 341 -577 174 -305 320 -559 324 -563 4 -5
151 243 326 550 175 307 330 570 345 585 14 14 43 31 65 37 51 14 451 15 492
0 39 -13 66 -53 59 -88 -3 -14 -220 -413 -481 -886 l-476 -860 0 -463 0 -464
-29 -29 -29 -29 -266 0 -265 0 -28 24 -28 24 -3 470 -3 469 -474 857 c-261
472 -477 866 -480 877 -10 32 15 80 49 95 38 16 441 19 498 3z"/>
</g>
</svg>
