<?xml version="1.0" encoding="UTF-8"?>
<svg id="Layer_2" data-name="Layer 2" xmlns="http://www.w3.org/2000/svg" viewBox="0 0 7.54 7.54">
    <defs>
        <style>
            .cls-1 {
            fill: #b8b8b8;
            }

            .cls-1, .cls-2 {
            stroke-width: 0px;
            }

            .cls-2 {
            fill: #fff;
            }
        </style>
    </defs>
    <g id="Layer_1-2" data-name="Github">
        <g id="FnvkCl.tif">
            <g>
                <path class="cls-1"
                      d="m3.58,0c.13,0,.26,0,.4,0,.02,0,.03,0,.05,0,.1.01.21.02.31.03.66.1,1.25.35,1.77.77.85.68,1.32,1.57,1.42,2.65,0,.07.01.14.02.21v.27s0,.03,0,.05c-.01.24-.05.47-.11.7-.39,1.48-1.62,2.58-3.14,2.79-.46.06-.92.04-1.37-.06-.78-.19-1.44-.58-1.96-1.18C.17,5.35-.13,4.3.06,3.13c.16-.98.66-1.78,1.46-2.38C2.05.34,2.66.11,3.33.03c.08,0,.16-.02.25-.03Zm.8,5.2c.17.17.2.39.2.62,0,.28,0,.56,0,.84,0,.13.1.2.22.16.54-.19,1.01-.48,1.38-.91.71-.82.97-1.76.74-2.82-.21-.97-.76-1.7-1.63-2.17-.68-.37-1.42-.47-2.18-.31-.79.17-1.44.57-1.92,1.22-.58.78-.78,1.67-.57,2.62.27,1.17.98,1.96,2.11,2.37.13.05.23-.02.23-.17,0-.16,0-.32,0-.48,0-.01,0-.03,0-.04-.02,0-.03,0-.04,0-.09,0-.17.03-.26.03-.35,0-.64-.13-.78-.47-.06-.16-.15-.3-.29-.41-.05-.04-.11-.08-.15-.12-.02-.02-.04-.05-.03-.08,0-.02.04-.04.06-.04.09-.02.17,0,.25.03.15.07.25.18.34.31.07.1.14.19.25.25.22.13.44.1.66,0,.01,0,.02-.03.02-.04.03-.14.07-.28.18-.38,0,0,0,0,0-.02-.01,0-.02,0-.04,0-.18-.02-.35-.06-.51-.12-.35-.12-.62-.33-.77-.67-.09-.21-.13-.43-.14-.66-.02-.37.06-.7.31-.98,0-.01.02-.04.01-.05-.09-.27-.06-.53.03-.8.01-.03.03-.04.06-.04.07,0,.13.01.19.03.23.05.43.17.62.29.02.01.05.02.07.01.51-.13,1.03-.13,1.54,0,.02,0,.05,0,.07-.01.13-.07.26-.15.4-.21.13-.06.27-.11.41-.1.02,0,.05.02.05.03.09.26.13.53.04.8,0,.03,0,.04.01.06.12.14.21.29.26.47.08.28.06.56,0,.83-.1.53-.41.88-.94,1.02-.16.04-.32.07-.48.11Z"/>
            </g>
        </g>
    </g>
</svg>