<?xml version="1.0" encoding="UTF-8"?><svg id="Layer_2" xmlns="http://www.w3.org/2000/svg" xmlns:xlink="http://www.w3.org/1999/xlink" viewBox="0 0 18 22"><defs><style>.cls-1{fill:url(#linear-gradient);}</style><linearGradient id="linear-gradient" x1="0" y1="11" x2="18" y2="11" gradientTransform="matrix(1, 0, 0, 1, 0, 0)" gradientUnits="userSpaceOnUse"><stop offset="0" stop-color="#6366f1"/><stop offset=".5" stop-color="#a855f7"/><stop offset="1" stop-color="#ec4899"/></linearGradient></defs><g id="Layer_1-2"><path class="cls-1" d="M16,2V20h-6v-3.5h-2v3.5H2V2h14m-4,4h2v-2h-2v2m-4,0h2v-2h-2v2m-4,0h2v-2h-2v2m8,4h2v-2h-2v2m-4,0h2v-2h-2v2m-4,0h2v-2h-2v2m8,4h2v-2h-2v2m-4,0h2v-2h-2v2m-4,0h2v-2h-2v2m8,4h2v-2h-2v2m-8,0h2v-2h-2v2M18,0H0V22H18V0Z"/></g></svg>