<?xml version="1.0" encoding="UTF-8"?><svg id="Layer_2" xmlns="http://www.w3.org/2000/svg" xmlns:xlink="http://www.w3.org/1999/xlink" viewBox="0 0 16 21"><defs><style>.cls-1{fill:url(#linear-gradient);}</style><linearGradient id="linear-gradient" x1="0" y1="10.5" x2="16" y2="10.5" gradientTransform="matrix(1, 0, 0, 1, 0, 0)" gradientUnits="userSpaceOnUse"><stop offset="0" stop-color="#6366f1"/><stop offset=".5" stop-color="#a855f7"/><stop offset="1" stop-color="#ec4899"/></linearGradient></defs><g id="Layer_1-2"><path class="cls-1" d="M8,16c-1.11,0-2-.9-2-2s.89-2,2-2,2,.9,2,2-.9,2-2,2m6,3V9H2v10H14m0-12c1.1,0,2,.9,2,2v10c0,1.1-.9,2-2,2H2c-1.11,0-2-.9-2-2V9c0-1.11,.89-2,2-2h1v-2C3,2.24,5.24,0,8,0s5,2.24,5,5v2h1M8,2c-1.66,0-3,1.34-3,3v2h6v-2c0-1.66-1.34-3-3-3Z"/></g></svg>