<?xml version="1.0" encoding="UTF-8"?><svg id="Layer_2" xmlns="http://www.w3.org/2000/svg" xmlns:xlink="http://www.w3.org/1999/xlink" viewBox="0 0 22 22"><defs><style>.cls-1{fill:url(#linear-gradient-3);}.cls-2{fill:url(#linear-gradient-2);}.cls-3{fill:none;stroke:url(#linear-gradient);stroke-miterlimit:10;stroke-width:2px;}</style><linearGradient id="linear-gradient" x1="0" y1="11" x2="22" y2="11" gradientTransform="matrix(1, 0, 0, 1, 0, 0)" gradientUnits="userSpaceOnUse"><stop offset="0" stop-color="#6366f1"/><stop offset=".5" stop-color="#a855f7"/><stop offset="1" stop-color="#ec4899"/></linearGradient><linearGradient id="linear-gradient-2" x1="8.06" y1="3.41" x2="8.94" y2="3.41" xlink:href="#linear-gradient"/><linearGradient id="linear-gradient-3" x1="13.06" y1="18.63" x2="13.94" y2="18.63" xlink:href="#linear-gradient"/></defs><g id="Layer_1-2"><g><path class="cls-3" d="M18.14,6c1.58,0,2.86,1.28,2.86,2.86h0v3.78c0,1.58-1.28,2.86-2.86,2.86h-7.14c0,.39,.32,.96,.71,.96h4.29v1.68c0,1.58-1.28,2.86-2.86,2.86h-4.28c-1.58,0-2.86-1.28-2.86-2.86h0v-3.75c0-1.58,1.28-2.85,2.86-2.85h5.25c1.58,0,2.85-1.28,2.85-2.86v-2.68h1.18M3.86,16c-1.58,0-2.86-1.28-2.86-2.86v-3.78c0-1.58,1.28-2.86,2.86-2.86h7.14c0-.39-.32-.96-.71-.96H6v-1.68c0-1.58,1.28-2.86,2.86-2.86h4.28c1.58,0,2.86,1.28,2.86,2.86v3.75c0,1.58-1.28,2.85-2.86,2.85H7.89c-1.58,0-2.85,1.28-2.85,2.86v2.68h-1.18"/><circle class="cls-2" cx="8.5" cy="3.41" r=".44"/><circle class="cls-1" cx="13.5" cy="18.63" r=".44"/></g></g></svg>