<?xml version="1.0" encoding="UTF-8"?><svg id="Layer_2" xmlns="http://www.w3.org/2000/svg" xmlns:xlink="http://www.w3.org/1999/xlink" viewBox="0 0 18 20"><defs><style>.cls-1{fill:url(#linear-gradient);}</style><linearGradient id="linear-gradient" x1="0" y1="10" x2="18" y2="10" gradientTransform="matrix(1, 0, 0, 1, 0, 0)" gradientUnits="userSpaceOnUse"><stop offset="0" stop-color="#6366f1"/><stop offset=".5" stop-color="#a855f7"/><stop offset="1" stop-color="#ec4899"/></linearGradient></defs><g id="Layer_1-2"><path class="cls-1" d="M4,10h2v2h-2v-2m14-6v14c0,1.11-.89,2-2,2H2c-1.11,0-2-.9-2-2V4c0-1.1,.9-2,2-2h1V0h2V2H13V0h2V2h1c1.11,0,2,.9,2,2M2,6h14v-2H2v2m14,12V8H2v10h14m-4-6v-2h2v2h-2m-4,0v-2h2v2h-2m-4,2h2v2h-2v-2m8,2v-2h2v2h-2m-4,0v-2h2v2h-2Z"/></g></svg>