<?xml version="1.0" encoding="UTF-8"?><svg id="Layer_2" xmlns="http://www.w3.org/2000/svg" xmlns:xlink="http://www.w3.org/1999/xlink" viewBox="0 0 20 18"><defs><style>.cls-1{fill:url(#linear-gradient);}</style><linearGradient id="linear-gradient" x1="0" y1="9" x2="20" y2="9" gradientTransform="matrix(1, 0, 0, 1, 0, 0)" gradientUnits="userSpaceOnUse"><stop offset="0" stop-color="#6366f1"/><stop offset=".5" stop-color="#a855f7"/><stop offset="1" stop-color="#ec4899"/></linearGradient></defs><g id="Layer_1-2"><path class="cls-1" d="M18,16V4H2v12H18M18,0c1.1,0,2,.9,2,2v14c0,1.1-.9,2-2,2H2c-1.1,0-2-.9-2-2V2C0,.89,.9,0,2,0H18m-7,14v-2h5v2h-5m-3.42-4L3.57,6h2.83l3.3,3.3c.39,.39,.39,1.03,0,1.42l-3.28,3.28H3.59l3.99-4Z"/></g></svg>