<?xml version="1.0" encoding="UTF-8"?><svg id="Layer_2" xmlns="http://www.w3.org/2000/svg" xmlns:xlink="http://www.w3.org/1999/xlink" viewBox="0 0 20 19.52"><defs><style>.cls-1{fill:url(#linear-gradient);}</style><linearGradient id="linear-gradient" x1="0" y1="9.76" x2="20" y2="9.76" gradientTransform="matrix(1, 0, 0, 1, 0, 0)" gradientUnits="userSpaceOnUse"><stop offset="0" stop-color="#6366f1"/><stop offset=".5" stop-color="#a855f7"/><stop offset="1" stop-color="#ec4899"/></linearGradient></defs><g id="Layer_1-2"><path class="cls-1" d="M10,0C4.48,0,0,4.48,0,10c0,4.42,2.87,8.17,6.84,9.5,.5,.08,.66-.23,.66-.5v-1.69c-2.77,.6-3.36-1.34-3.36-1.34-.46-1.16-1.11-1.47-1.11-1.47-.91-.62,.07-.6,.07-.6,1,.07,1.53,1.03,1.53,1.03,.87,1.52,2.34,1.07,2.91,.83,.09-.65,.35-1.09,.63-1.34-2.22-.25-4.55-1.11-4.55-4.92,0-1.11,.38-2,1.03-2.71-.1-.25-.45-1.29,.1-2.64,0,0,.84-.27,2.75,1.02,.79-.22,1.65-.33,2.5-.33s1.71,.11,2.5,.33c1.91-1.29,2.75-1.02,2.75-1.02,.55,1.35,.2,2.39,.1,2.64,.65,.71,1.03,1.6,1.03,2.71,0,3.82-2.34,4.66-4.57,4.91,.36,.31,.69,.92,.69,1.85v2.74c0,.27,.16,.59,.67,.5,3.97-1.34,6.83-5.08,6.83-9.5C20,4.48,15.52,0,10,0Z"/></g></svg>