<?xml version="1.0" encoding="UTF-8"?><svg id="Layer_2" xmlns="http://www.w3.org/2000/svg" xmlns:xlink="http://www.w3.org/1999/xlink" viewBox="0 0 18 20"><defs><style>.cls-1{fill:url(#linear-gradient);}</style><linearGradient id="linear-gradient" x1="0" y1="10" x2="18" y2="10" gradientTransform="matrix(1, 0, 0, 1, 0, 0)" gradientUnits="userSpaceOnUse"><stop offset="0" stop-color="#6366f1"/><stop offset=".5" stop-color="#a855f7"/><stop offset="1" stop-color="#ec4899"/></linearGradient></defs><g id="Layer_1-2"><path class="cls-1" d="M16,14c0,1.72-.63,3.3-1.66,4.5,.41,.39,.66,.91,.66,1.5H3c0-.59,.25-1.11,.66-1.5-1.03-1.2-1.66-2.78-1.66-4.5H0c0-1.25,.57-2.36,1.46-3.09v-.02c1.54-1.08,2.54-2.89,2.54-4.89v-1C4,2.24,6.24,0,9,0s5,2.24,5,5v1c0,2,1,3.81,2.53,4.89v.02c.9,.73,1.47,1.84,1.47,3.09h-2m-3,0c0-2.21-1.79-4-4-4s-4,1.79-4,4,1.79,4,4,4,4-1.79,4-4M7,7l2,1.5,2-1.5-2-1.5-2,1.5m0-4c-.55,0-1,.45-1,1s.45,1,1,1,1-.45,1-1-.45-1-1-1m4,0c-.55,0-1,.45-1,1s.45,1,1,1,1-.45,1-1-.45-1-1-1Z"/></g></svg>