<?xml version="1.0" encoding="UTF-8"?><svg id="Layer_2" xmlns="http://www.w3.org/2000/svg" xmlns:xlink="http://www.w3.org/1999/xlink" viewBox="0 0 22 20"><defs><style>.cls-1{fill:url(#linear-gradient);}</style><linearGradient id="linear-gradient" x1="0" y1="10" x2="22" y2="10" gradientTransform="matrix(1, 0, 0, 1, 0, 0)" gradientUnits="userSpaceOnUse"><stop offset="0" stop-color="#6366f1"/><stop offset=".5" stop-color="#a855f7"/><stop offset="1" stop-color="#ec4899"/></linearGradient></defs><g id="Layer_1-2"><path class="cls-1" d="M20,14v-3c0-1.11-.89-2-2-2h-6v-3h2V0h-6V6h2v3H4c-1.11,0-2,.89-2,2v3H0v6H6v-6h-2v-3h6v3h-2v6h6v-6h-2v-3h6v3h-2v6h6v-6h-2M10,2h2v2h-2V2M4,18H2v-2h2v2m8,0h-2v-2h2v2m8,0h-2v-2h2v2Z"/></g></svg>