<?xml version="1.0" encoding="UTF-8"?><svg id="Layer_2" xmlns="http://www.w3.org/2000/svg" xmlns:xlink="http://www.w3.org/1999/xlink" viewBox="0 0 16 20"><defs><style>.cls-1{fill:url(#linear-gradient);}</style><linearGradient id="linear-gradient" x1="0" y1="10" x2="16" y2="10" gradientTransform="matrix(1, 0, 0, 1, 0, 0)" gradientUnits="userSpaceOnUse"><stop offset="0" stop-color="#6366f1"/><stop offset=".5" stop-color="#a855f7"/><stop offset="1" stop-color="#ec4899"/></linearGradient></defs><g id="Layer_1-2"><path class="cls-1" d="M9,7h5.5L9,1.5V7M2,0H10l6,6v12c0,1.1-.9,2-2,2H2c-1.11,0-2-.9-2-2V2C0,.89,.89,0,2,0m.12,13.5l3.74,3.74,1.42-1.41-2.33-2.33,2.33-2.33-1.42-1.41-3.74,3.74m11.16,0l-3.74-3.74-1.42,1.41,2.33,2.33-2.33,2.33,1.42,1.41,3.74-3.74Z"/></g></svg>