<?xml version="1.0" encoding="UTF-8"?><svg id="Layer_2" xmlns="http://www.w3.org/2000/svg" xmlns:xlink="http://www.w3.org/1999/xlink" viewBox="0 0 20 20"><defs><style>.cls-1{fill:url(#linear-gradient);}</style><linearGradient id="linear-gradient" x1="0" y1="10" x2="20" y2="10" gradientTransform="matrix(1, 0, 0, 1, 0, 0)" gradientUnits="userSpaceOnUse"><stop offset="0" stop-color="#6366f1"/><stop offset=".5" stop-color="#a855f7"/><stop offset="1" stop-color="#ec4899"/></linearGradient></defs><g id="Layer_1-2"><path class="cls-1" d="M17.5,15c-.13,0-.26,0-.39,.04l-1.61-3.25c.45-.45,.75-1.08,.75-1.79,0-1.38-1.12-2.5-2.5-2.5-.13,0-.25,0-.39,.04l-1.63-3.25c.48-.45,.77-1.08,.77-1.79,0-1.38-1.12-2.5-2.5-2.5s-2.5,1.12-2.5,2.5c0,.71,.29,1.34,.76,1.79l-1.62,3.25c-.14-.04-.26-.04-.39-.04-1.38,0-2.5,1.12-2.5,2.5,0,.71,.3,1.34,.75,1.79l-1.61,3.25c-.13-.04-.26-.04-.39-.04-1.38,0-2.5,1.12-2.5,2.5s1.12,2.5,2.5,2.5,2.5-1.12,2.5-2.5c0-.7-.29-1.34-.76-1.79l1.62-3.25c.14,.04,.26,.04,.39,.04s.25,0,.39-.04l1.63,3.25c-.47,.45-.77,1.09-.77,1.79,0,1.38,1.12,2.5,2.5,2.5s2.5-1.12,2.5-2.5-1.12-2.5-2.5-2.5c-.13,0-.26,0-.39,.04l-1.61-3.25c.46-.45,.75-1.08,.75-1.79s-.29-1.34-.75-1.79l1.61-3.25c.13,.04,.26,.04,.39,.04s.26,0,.39-.04l1.61,3.25c-.45,.45-.75,1.09-.75,1.79,0,1.38,1.12,2.5,2.5,2.5,.13,0,.25,0,.39-.04l1.63,3.25c-.47,.45-.77,1.09-.77,1.79,0,1.38,1.12,2.5,2.5,2.5s2.5-1.12,2.5-2.5-1.12-2.5-2.5-2.5Z"/></g></svg>