<?xml version="1.0" encoding="UTF-8"?><svg id="Layer_2" xmlns="http://www.w3.org/2000/svg" xmlns:xlink="http://www.w3.org/1999/xlink" viewBox="0 0 21.1 20"><defs><style>.cls-1{fill:url(#linear-gradient);}</style><linearGradient id="linear-gradient" x1="294" y1="-705.15" x2="315.1" y2="-705.15" gradientTransform="translate(-294 -695.15) scale(1 -1)" gradientUnits="userSpaceOnUse"><stop offset="0" stop-color="#6366f1"/><stop offset=".5" stop-color="#a855f7"/><stop offset="1" stop-color="#ec4899"/></linearGradient></defs><g id="Layer_1-2"><path class="cls-1" d="M21.1,2.1V.3l-1.8-.2c-.1,0-.7-.1-1.7-.1-4.1,0-7.1,1.2-8.8,3.3-1.3-.8-3.1-1.3-5.2-1.3-1,0-1.7,.1-1.7,.1l-1.9,.3,.1,1.7c.1,3,1.6,8.7,6.8,8.7h.2v3.4c-3.8,.5-7,1.8-7,1.8v2H20.1v-2s-3.2-1.3-7-1.8v-3.2c6.3-.1,8-7.2,8-10.9m-11,13.9h-1v-5.6s-.2-3.4-3-3.4c0,0,1.5,.8,1.9,3.7-.4,.1-.8,.1-1.1,.1-4.6,0-4.8-6.7-4.8-6.7,0,0,.6-.1,1.5-.1,1.9,0,5,.4,5.9,3.1,.5-4.5,5.6-5.1,8.1-5.1,.9,0,1.5,.1,1.5,.1,0,0,0,9-6.3,9h-.7c0-2,2-5,2-5-3,1-3,4.9-3,4.9v5h-1Z"/></g></svg>