<?xml version="1.0" encoding="UTF-8"?><svg id="Layer_2" xmlns="http://www.w3.org/2000/svg" xmlns:xlink="http://www.w3.org/1999/xlink" viewBox="0 0 18 18"><defs><style>.cls-1{fill:url(#linear-gradient);}</style><linearGradient id="linear-gradient" x1="0" y1="9" x2="18" y2="9" gradientTransform="matrix(1, 0, 0, 1, 0, 0)" gradientUnits="userSpaceOnUse"><stop offset="0" stop-color="#6366f1"/><stop offset=".5" stop-color="#a855f7"/><stop offset="1" stop-color="#ec4899"/></linearGradient></defs><g id="Layer_1-2"><path class="cls-1" d="M5,0c-1.1,0-2,.9-2,2V6c0,1.1-.9,2-2,2H0v2H1c1.1,0,2,.9,2,2v4c0,1.1,.9,2,2,2h2v-2h-2v-5c0-1.1-.9-2-2-2,1.1,0,2-.9,2-2V2h2V0m6,0c1.1,0,2,.9,2,2V6c0,1.1,.9,2,2,2h1v2h-1c-1.1,0-2,.9-2,2v4c0,1.1-.9,2-2,2h-2v-2h2v-5c0-1.1,.9-2,2-2-1.1,0-2-.9-2-2V2h-2V0h2Z"/></g></svg>