<?xml version="1.0" encoding="UTF-8"?><svg id="Layer_2" xmlns="http://www.w3.org/2000/svg" xmlns:xlink="http://www.w3.org/1999/xlink" viewBox="0 0 9 20"><defs><style>.cls-1{fill:url(#linear-gradient);}</style><linearGradient id="linear-gradient" x1="0" y1="10" x2="9" y2="10" gradientTransform="matrix(1, 0, 0, 1, 0, 0)" gradientUnits="userSpaceOnUse"><stop offset="0" stop-color="#6366f1"/><stop offset=".5" stop-color="#a855f7"/><stop offset="1" stop-color="#ec4899"/></linearGradient></defs><g id="Layer_1-2"><path class="cls-1" d="M7,0c-.55,0-1,.45-1,1v3H2c-1.11,0-2,.89-2,2v12c0,1.11,.89,2,2,2H7c1.11,0,2-.89,2-2V6c0-.74-.4-1.38-1-1.72V1c0-.55-.45-1-1-1M2,6H7v5H2V6m0,7h1v1h-1v-1m2,0h1v1h-1v-1m2,0h1v1h-1v-1m-4,2h1v1h-1v-1m2,0h1v1h-1v-1m2,0h1v1h-1v-1m-4,2h1v1h-1v-1m2,0h1v1h-1v-1m2,0h1v1h-1v-1Z"/></g></svg>