<?xml version="1.0" encoding="UTF-8"?><svg id="Layer_2" xmlns="http://www.w3.org/2000/svg" xmlns:xlink="http://www.w3.org/1999/xlink" viewBox="0 0 24 13"><defs><style>.cls-1{fill:url(#linear-gradient);}</style><linearGradient id="linear-gradient" x1="0" y1="6.5" x2="24" y2="6.5" gradientTransform="matrix(1, 0, 0, 1, 0, 0)" gradientUnits="userSpaceOnUse"><stop offset="0" stop-color="#6366f1"/><stop offset=".5" stop-color="#a855f7"/><stop offset="1" stop-color="#ec4899"/></linearGradient></defs><g id="Layer_1-2"><path class="cls-1" d="M22,0H9c-1.1,0-2,.9-2,2V11c0,1.11,.9,2,2,2h13c1.11,0,2-.89,2-2V2c0-1.1-.89-2-2-2m0,11H9V3.67l6.5,3.33,6.5-3.33v7.33m-6.5-5.69l-6.5-3.31h13l-6.5,3.31M5,11c0,.17,.03,.33,.05,.5H1c-.55,0-1-.45-1-1s.45-1,1-1H5v1.5M3,1.5h2.05c-.02,.17-.05,.33-.05,.5v1.5H3c-.55,0-1-.45-1-1s.45-1,1-1M1,6.5c0-.55,.45-1,1-1h3v2H2c-.55,0-1-.45-1-1Z"/></g></svg>