<?xml version="1.0" encoding="UTF-8"?><svg id="Layer_2" xmlns="http://www.w3.org/2000/svg" xmlns:xlink="http://www.w3.org/1999/xlink" viewBox="0 0 18 21"><defs><style>.cls-1{fill:url(#linear-gradient);}</style><linearGradient id="linear-gradient" x1="0" y1="10.5" x2="18" y2="10.5" gradientTransform="matrix(1, 0, 0, 1, 0, 0)" gradientUnits="userSpaceOnUse"><stop offset="0" stop-color="#6366f1"/><stop offset=".5" stop-color="#a855f7"/><stop offset="1" stop-color="#ec4899"/></linearGradient></defs><g id="Layer_1-2"><path class="cls-1" d="M0,12c0,4.97,4.03,9,9,9,0-5-4.03-9-9-9M9,4.5c1.38,0,2.5,1.12,2.5,2.5s-1.12,2.5-2.5,2.5-2.5-1.12-2.5-2.5,1.12-2.5,2.5-2.5M2.6,9.25c0,1.38,1.12,2.5,2.5,2.5h0c.53,0,1.02-.17,1.4-.44v.19c0,1.38,1.12,2.5,2.5,2.5s2.5-1.12,2.5-2.5v-.19c.38,.27,.87,.44,1.4,.44,1.38,0,2.5-1.12,2.5-2.5,0-1-.59-1.85-1.43-2.25,.84-.4,1.43-1.26,1.43-2.25,0-1.38-1.12-2.5-2.5-2.5-.53,0-1.02,.16-1.4,.44v-.19c0-1.38-1.12-2.5-2.5-2.5s-2.5,1.12-2.5,2.5v.19c-.38-.28-.87-.44-1.4-.44-1.38,0-2.5,1.12-2.5,2.5h0c0,.99,.59,1.85,1.43,2.25-.84,.4-1.43,1.25-1.43,2.25m6.4,11.75c4.97,0,9-4.03,9-9-5,0-9,4-9,9Z"/></g></svg>