<?xml version="1.0" encoding="UTF-8"?><svg id="Layer_2" xmlns="http://www.w3.org/2000/svg" xmlns:xlink="http://www.w3.org/1999/xlink" viewBox="0 0 20 18.5"><defs><style>.cls-1{fill:url(#linear-gradient);}</style><linearGradient id="linear-gradient" x1="0" y1="9.25" x2="20" y2="9.25" gradientTransform="matrix(1, 0, 0, 1, 0, 0)" gradientUnits="userSpaceOnUse"><stop offset="0" stop-color="#6366f1"/><stop offset=".5" stop-color="#a855f7"/><stop offset="1" stop-color="#ec4899"/></linearGradient></defs><g id="Layer_1-2"><path class="cls-1" d="M19.94,10.36l-1.05-3.22s-.01-.06-.02-.09L16.76,.57c-.11-.32-.43-.57-.8-.57s-.68,.25-.79,.58l-2,6.17H6.84L4.83,.58c-.11-.33-.43-.58-.79-.58h0c-.37,0-.69,.25-.8,.58L1.13,7.07h0L.06,10.36c-.16,.5,0,1.04,.44,1.34l9.22,6.71c.17,.12,.39,.12,.56-.01l9.22-6.7c.43-.3,.6-.84,.44-1.34M6.15,7.7l2.57,7.91L2.55,7.7m8.73,7.92l2.47-7.59,.1-.33h3.61l-5.59,7.16M15.97,1.19l1.81,5.56h-3.62m-1.3,.95l-1.79,5.51-1.07,3.28L7.14,7.7M4.03,1.19l1.81,5.56H2.23m-1.18,4.19c-.09-.07-.13-.19-.09-.29l.79-2.43,5.82,7.45m11.38-4.73l-6.51,4.73,.02-.03,5.79-7.42,.79,2.43c.04,.1,0,.22-.09,.29"/></g></svg>