<?xml version="1.0" encoding="UTF-8"?><svg id="Layer_2" xmlns="http://www.w3.org/2000/svg" xmlns:xlink="http://www.w3.org/1999/xlink" viewBox="0 0 22 21"><defs><style>.cls-1{fill:url(#linear-gradient);}</style><linearGradient id="linear-gradient" x1="0" y1="10.5" x2="22" y2="10.5" gradientTransform="matrix(1, 0, 0, 1, 0, 0)" gradientUnits="userSpaceOnUse"><stop offset="0" stop-color="#6366f1"/><stop offset=".5" stop-color="#a855f7"/><stop offset="1" stop-color="#ec4899"/></linearGradient></defs><g id="Layer_1-2"><path class="cls-1" d="M22,10.5l-2.4-2.8,.3-3.7-3.6-.8-1.9-3.2-3.4,1.5L7.6,0l-1.9,3.2-3.6,.8,.3,3.7L0,10.5l2.4,2.8-.3,3.7,3.6,.8,1.9,3.2,3.4-1.5,3.4,1.5,1.9-3.2,3.6-.8-.3-3.7,2.4-2.8m-4.3,4.9l-2.7,.6-1.4,2.4-2.6-1.1-2.6,1.1-1.4-2.4-2.7-.6,.2-2.8-1.8-2.1,1.8-2.1-.2-2.8,2.7-.6,1.4-2.4,2.6,1.1,2.6-1.1,1.4,2.4,2.7,.6-.2,2.8,1.8,2.1-1.8,2.1,.2,2.8m-2.1-9.3l1.4,1.4L9,15.5l-4-4,1.4-1.4,2.6,2.6,6.6-6.6Z"/></g></svg>