<?xml version="1.0" encoding="UTF-8"?><svg id="Layer_2" xmlns="http://www.w3.org/2000/svg" xmlns:xlink="http://www.w3.org/1999/xlink" viewBox="0 0 20 20"><defs><style>.cls-1{fill:url(#linear-gradient);}</style><linearGradient id="linear-gradient" x1="0" y1="10" x2="20" y2="10" gradientTransform="matrix(1, 0, 0, 1, 0, 0)" gradientUnits="userSpaceOnUse"><stop offset="0" stop-color="#6366f1"/><stop offset=".5" stop-color="#a855f7"/><stop offset="1" stop-color="#ec4899"/></linearGradient></defs><g id="Layer_1-2"><path class="cls-1" d="M8,0c-1.11,0-2,.89-2,2v3c0,1.11,.89,2,2,2h1v2H0v2H4v2h-1c-1.11,0-2,.89-2,2v3c0,1.11,.89,2,2,2H7c1.11,0,2-.89,2-2v-3c0-1.11-.89-2-2-2h-1v-2H14v2h-1c-1.11,0-2,.89-2,2v3c0,1.11,.89,2,2,2h4c1.11,0,2-.89,2-2v-3c0-1.11-.89-2-2-2h-1v-2h4v-2H11v-2h1c1.11,0,2-.89,2-2V2c0-1.11-.89-2-2-2h-4m0,2h4v3h-4V2M3,15H7v3H3v-3m10,0h4v3h-4v-3Z"/></g></svg>