<?xml version="1.0" encoding="UTF-8"?><svg id="Layer_2" xmlns="http://www.w3.org/2000/svg" xmlns:xlink="http://www.w3.org/1999/xlink" viewBox="0 0 20 21"><defs><style>.cls-1{fill:none;stroke:url(#linear-gradient);stroke-miterlimit:10;}</style><linearGradient id="linear-gradient" x1="0" y1="10.5" x2="20" y2="10.5" gradientTransform="matrix(1, 0, 0, 1, 0, 0)" gradientUnits="userSpaceOnUse"><stop offset="0" stop-color="#6366f1"/><stop offset=".5" stop-color="#a855f7"/><stop offset="1" stop-color="#ec4899"/></linearGradient></defs><g id="Layer_1-2"><path class="cls-1" d="M10.7,13v.24c-.7,.6-1.2,1.5-1.2,2.46v3.5c0,.46,.1,.9,.27,1.3H2.5c-1.11,0-2-.89-2-2V2.5C.5,1.4,1.39,.5,2.5,.5h1V7.5l2.5-1.5,2.5,1.5V.5h6c1.1,0,2,.89,2,2v6.11c-.32-.07-.66-.11-1-.11-2.6,0-4.8,2.06-4.8,4.5m8.8,2.8v3.5c0,.6-.6,1.2-1.3,1.2h-5.5c-.6,0-1.2-.6-1.2-1.3v-3.5c0-.6,.6-1.2,1.2-1.2v-1.5c0-1.4,1.4-2.5,2.8-2.5s2.8,1.1,2.8,2.5v1.5c.6,0,1.2,.6,1.2,1.3m-2.5-2.8c0-.8-.7-1.3-1.5-1.3s-1.5,.5-1.5,1.3v1.5h3v-1.5Z"/></g></svg>