<?xml version="1.0" encoding="UTF-8"?><svg id="Layer_2" xmlns="http://www.w3.org/2000/svg" xmlns:xlink="http://www.w3.org/1999/xlink" viewBox="0 0 14 20"><defs><style>.cls-1{fill:url(#linear-gradient);}</style><linearGradient id="linear-gradient" x1="0" y1="10" x2="14" y2="10" gradientTransform="matrix(1, 0, 0, 1, 0, 0)" gradientUnits="userSpaceOnUse"><stop offset="0" stop-color="#6366f1"/><stop offset=".5" stop-color="#a855f7"/><stop offset="1" stop-color="#ec4899"/></linearGradient></defs><g id="Layer_1-2"><path class="cls-1" d="M7,4.5c1.38,0,2.5,1.12,2.5,2.5s-1.12,2.5-2.5,2.5-2.5-1.12-2.5-2.5,1.12-2.5,2.5-2.5M7,0c3.87,0,7,3.13,7,7,0,5.25-7,13-7,13,0,0-7-7.75-7-13C0,3.13,3.13,0,7,0m0,2c-2.76,0-5,2.24-5,5,0,1,0,3,5,9.71,5-6.71,5-8.71,5-9.71,0-2.76-2.24-5-5-5Z"/></g></svg>