<?xml version="1.0" encoding="UTF-8"?><svg id="Layer_2" xmlns="http://www.w3.org/2000/svg" xmlns:xlink="http://www.w3.org/1999/xlink" viewBox="0 0 18 21"><defs><style>.cls-1{fill:url(#linear-gradient);}</style><linearGradient id="linear-gradient" x1="0" y1="10.5" x2="18" y2="10.5" gradientTransform="matrix(1, 0, 0, 1, 0, 0)" gradientUnits="userSpaceOnUse"><stop offset="0" stop-color="#6366f1"/><stop offset=".5" stop-color="#a855f7"/><stop offset="1" stop-color="#ec4899"/></linearGradient></defs><g id="Layer_1-2"><path class="cls-1" d="M5.66,12.07c-1.74,0-3.16-1.41-3.16-3.14,0-.71,.26-1.39,.69-1.93-.42-.54-.69-1.22-.69-1.93,0-1.73,1.43-3.14,3.16-3.14l.43,.03c.47-1.15,1.6-1.96,2.91-1.96s2.44,.81,2.91,1.96l.43-.03c1.73,0,3.16,1.41,3.16,3.14,0,.71-.26,1.39-.69,1.93,.42,.54,.69,1.22,.69,1.93,0,1.73-1.43,3.14-3.16,3.14l-.43-.03c-.47,1.15-1.6,1.96-2.91,1.96s-2.44-.81-2.91-1.96l-.43,.03m3.34-.07c.62,0,1.12-.5,1.14-1.1l-.11-1.09c-.32,.12-.67,.19-1.03,.19s-.7-.07-1-.19l-.14,1.09c.02,.6,.52,1.1,1.14,1.1m3.34-1.93c.63,0,1.16-.51,1.16-1.15,0-.42-.27-.84-.67-1.03l-.88-.42c-.12,.74-.51,1.38-1.06,1.83l.81,.57c.18,.13,.4,.2,.64,.2m-.65-5.94l-.82,.56c.56,.45,.95,1.09,1.07,1.81l.88-.4c.41-.2,.68-.6,.68-1.03,0-.63-.53-1.14-1.16-1.14-.23,0-.45,.07-.65,.2m-2.69-2.13c-.62,0-1.12,.5-1.14,1.1l.14,1.09c.3-.12,.64-.19,1-.19s.71,.07,1.03,.19l.11-1.09c-.02-.6-.52-1.1-1.14-1.1m-3.34,1.93c-.63,0-1.16,.51-1.16,1.14,0,.43,.27,.83,.67,1.03l.88,.4c.12-.72,.51-1.36,1.06-1.81l-.81-.56c-.18-.13-.4-.2-.64-.2m-.49,3.97c-.4,.2-.67,.6-.67,1.02,0,.63,.53,1.14,1.16,1.14,.23,0,.45-.06,.65-.2l.81-.55c-.56-.45-.95-1.09-1.07-1.81l-.88,.4m3.83,13.1C4.03,21,0,16.97,0,12c4.97,0,9,4.03,9,9,0-4.97,4.03-9,9-9,0,4.97-4.03,9-9,9m2.44-2.44c1.9-.71,3.41-2.22,4.12-4.12-1.9,.7-3.41,2.22-4.12,4.12M2.44,14.44c.71,1.9,2.22,3.41,4.12,4.12-.7-1.9-2.22-3.41-4.12-4.12Z"/></g></svg>