<?xml version="1.0" encoding="UTF-8"?><svg id="Layer_2" xmlns="http://www.w3.org/2000/svg" xmlns:xlink="http://www.w3.org/1999/xlink" viewBox="0 0 15 17"><defs><style>.cls-1{fill:url(#linear-gradient);}</style><linearGradient id="linear-gradient" x1="0" y1="8.5" x2="15" y2="8.5" gradientTransform="matrix(1, 0, 0, 1, 0, 0)" gradientUnits="userSpaceOnUse"><stop offset="0" stop-color="#6366f1"/><stop offset=".5" stop-color="#a855f7"/><stop offset="1" stop-color="#ec4899"/></linearGradient></defs><g id="Layer_1-2"><path class="cls-1" d="M9.4,2h5.6V12h-7l-.4-2H2v7H0V0H9l.4,2m-.4,8h2v-2h2v-2h-2v-2h-2v2l-1-2V2h-2v2h-2V2H2v2h2v2H2v2h2v-2h2v2h2v-2l1,2v2m-3-4v-2h2v2h-2m3,0h2v2h-2v-2Z"/></g></svg>