<?xml version="1.0" encoding="UTF-8"?><svg id="Layer_2" xmlns="http://www.w3.org/2000/svg" xmlns:xlink="http://www.w3.org/1999/xlink" viewBox="0 0 18 20.3"><defs><style>.cls-1{fill:url(#linear-gradient);}</style><linearGradient id="linear-gradient" x1="0" y1="10.15" x2="18" y2="10.15" gradientTransform="matrix(1, 0, 0, 1, 0, 0)" gradientUnits="userSpaceOnUse"><stop offset="0" stop-color="#6366f1"/><stop offset=".5" stop-color="#a855f7"/><stop offset="1" stop-color="#ec4899"/></linearGradient></defs><g id="Layer_1-2"><path class="cls-1" d="M9,0c-.27,0-.55,.07-.78,.2L.78,4.5c-.48,.28-.78,.8-.78,1.36V14.44c0,.56,.3,1.08,.78,1.36l1.95,1.12c.95,.46,1.27,.47,1.71,.47,1.4,0,2.21-.85,2.21-2.33V6.59c0-.12-.1-.22-.22-.22h-.93c-.13,0-.23,.1-.23,.22V15.06c0,.66-.68,1.31-1.77,.76l-2.05-1.17c-.07-.05-.11-.13-.11-.21V5.86c0-.09,.04-.17,.11-.21L8.89,1.36c.06-.04,.16-.04,.22,0l7.44,4.29c.07,.04,.11,.12,.11,.21V14.44c0,.08-.04,.16-.11,.21l-7.44,4.29c-.06,.04-.16,.04-.23,0l-1.88-1.14c-.08-.03-.16-.04-.21-.01-.53,.3-.63,.36-1.12,.51-.12,.04-.31,.11,.07,.32l2.48,1.47c.24,.14,.5,.21,.78,.21s.54-.07,.78-.21l7.44-4.29c.48-.28,.78-.8,.78-1.36V5.86c0-.56-.3-1.08-.78-1.36L9.78,.2c-.23-.13-.5-.2-.78-.2m2,6.15c-2.12,0-3.39,.89-3.39,2.39,0,1.61,1.26,2.08,3.3,2.28,2.43,.24,2.62,.6,2.62,1.08,0,.83-.67,1.18-2.23,1.18-1.98,0-2.4-.49-2.55-1.47-.02-.1-.11-.18-.22-.18h-.96c-.12,0-.21,.09-.21,.22,0,1.24,.68,2.74,3.94,2.74,2.35,0,3.7-.93,3.7-2.55s-1.08-2.03-3.37-2.34c-2.31-.3-2.54-.46-2.54-1,0-.45,.2-1.05,1.91-1.05,1.5,0,2.09,.33,2.32,1.36,.02,.1,.11,.17,.21,.17h.97s.11-.02,.15-.07c.04-.04,.07-.1,.05-.16-.14-1.78-1.32-2.6-3.7-2.6Z"/></g></svg>