<?xml version="1.0" encoding="UTF-8"?><svg id="Layer_2" xmlns="http://www.w3.org/2000/svg" xmlns:xlink="http://www.w3.org/1999/xlink" viewBox="0 0 19.99 19.99"><defs><style>.cls-1{fill:url(#linear-gradient);}</style><linearGradient id="linear-gradient" x1="0" y1="9.99" x2="19.99" y2="9.99" gradientTransform="matrix(1, 0, 0, 1, 0, 0)" gradientUnits="userSpaceOnUse"><stop offset="0" stop-color="#6366f1"/><stop offset=".5" stop-color="#a855f7"/><stop offset="1" stop-color="#ec4899"/></linearGradient></defs><g id="Layer_1-2"><path class="cls-1" d="M.59,8.58L6.37,2.79l1.69,1.7c-.24,.85,.15,1.78,.93,2.23v5.54c-.6,.34-1,.99-1,1.73,0,1.1,.9,2,2,2s2-.9,2-2c0-.74-.4-1.39-1-1.73V7.4l2.07,2.09c-.07,.15-.07,.32-.07,.5,0,1.1,.9,2,2,2s2-.9,2-2-.9-2-2-2c-.18,0-.35,0-.5,.07l-2.57-2.57c.26-.93-.22-1.95-1.15-2.34-.43-.16-.88-.2-1.28-.09l-1.7-1.69,.79-.78c.78-.79,2.04-.79,2.82,0l7.99,7.99c.79,.78,.79,2.04,0,2.82l-7.99,7.99c-.78,.79-2.04,.79-2.82,0L.59,11.4c-.79-.78-.79-2.04,0-2.82Z"/></g></svg>