<?xml version="1.0" encoding="UTF-8"?><svg id="Layer_2" xmlns="http://www.w3.org/2000/svg" xmlns:xlink="http://www.w3.org/1999/xlink" viewBox="0 0 14.73 18"><defs><style>.cls-1{fill:url(#linear-gradient);}</style><linearGradient id="linear-gradient" x1="0" y1="9" x2="14.73" y2="9" gradientTransform="matrix(1, 0, 0, 1, 0, 0)" gradientUnits="userSpaceOnUse"><stop offset="0" stop-color="#6366f1"/><stop offset=".5" stop-color="#a855f7"/><stop offset="1" stop-color="#ec4899"/></linearGradient></defs><g id="Layer_1-2"><path class="cls-1" d="M.82,0H13.91c.45,0,.82,.37,.82,.82v3.27c0,.45-.37,.82-.82,.82H.82c-.45,0-.82-.37-.82-.82V.82C0,.37,.37,0,.82,0M.82,6.55H13.91c.45,0,.82,.37,.82,.82v3.27c0,.45-.37,.82-.82,.82H.82c-.45,0-.82-.37-.82-.82v-3.27c0-.45,.37-.82,.82-.82m0,6.55H13.91c.45,0,.82,.37,.82,.82v3.27c0,.45-.37,.82-.82,.82H.82c-.45,0-.82-.37-.82-.82v-3.27c0-.45,.37-.82,.82-.82M4.91,3.27h.82V1.64h-.82v1.64m0,6.55h.82v-1.64h-.82v1.64m0,6.55h.82v-1.64h-.82v1.64M1.64,1.64v1.64h1.64V1.64H1.64m0,6.55v1.64h1.64v-1.64H1.64m0,6.55v1.64h1.64v-1.64H1.64Z"/></g></svg>