<?xml version="1.0" encoding="UTF-8"?><svg id="Layer_2" xmlns="http://www.w3.org/2000/svg" xmlns:xlink="http://www.w3.org/1999/xlink" viewBox="0 0 22 20"><defs><style>.cls-1{fill:url(#linear-gradient);}</style><linearGradient id="linear-gradient" x1="0" y1="10" x2="22" y2="10" gradientTransform="matrix(1, 0, 0, 1, 0, 0)" gradientUnits="userSpaceOnUse"><stop offset="0" stop-color="#6366f1"/><stop offset=".5" stop-color="#a855f7"/><stop offset="1" stop-color="#ec4899"/></linearGradient></defs><g id="Layer_1-2"><path class="cls-1" d="M20,0H2C.9,0,0,.9,0,2V18c0,1.1,.9,2,2,2H20c1.1,0,2-.9,2-2V2c0-1.1-.9-2-2-2M10,9h-2v1.5c0,1.1-.9,2-2,2,1.1,0,2,.9,2,2v1.5h2v2h-2c-1.1,0-2-.9-2-2v-.5c0-1.1-.9-2-2-2v-2c1.1,0,2-.9,2-2v-.5c0-1.1,.9-2,2-2h2v2m8,4.5c-1.1,0-2,.9-2,2v.5c0,1.1-.9,2-2,2h-2v-2h2v-1.5c0-1.1,.9-2,2-2-1.1,0-2-.9-2-2v-1.5h-2v-2h2c1.1,0,2,.9,2,2v.5c0,1.1,.9,2,2,2v2m2-8.5H2V2H20v3Z"/></g></svg>