<?xml version="1.0" encoding="UTF-8"?><svg id="Layer_2" xmlns="http://www.w3.org/2000/svg" xmlns:xlink="http://www.w3.org/1999/xlink" viewBox="0 0 14 18"><defs><style>.cls-1{fill:url(#linear-gradient);}</style><linearGradient id="linear-gradient" x1="0" y1="9" x2="14" y2="9" gradientTransform="matrix(1, 0, 0, 1, 0, 0)" gradientUnits="userSpaceOnUse"><stop offset="0" stop-color="#6366f1"/><stop offset=".5" stop-color="#a855f7"/><stop offset="1" stop-color="#ec4899"/></linearGradient></defs><g id="Layer_1-2"><path class="cls-1" d="M0,0V18H6v-3.5h2v3.5h6V0H0M2,2h2v2H2V2m4,0h2v2h-2V2m4,0h2v2h-2V2M2,6h2v2H2v-2m4,0h2v2h-2v-2m4,0h2v2h-2v-2M2,10h2v2H2v-2m4,0h2v2h-2v-2m4,0h2v2h-2v-2M2,14h2v2H2v-2m8,0h2v2h-2v-2Z"/></g></svg>