<?xml version="1.0" encoding="UTF-8"?><svg id="Layer_2" xmlns="http://www.w3.org/2000/svg" xmlns:xlink="http://www.w3.org/1999/xlink" viewBox="0 0 15.73 19"><defs><style>.cls-1{fill:none;stroke:url(#linear-gradient);stroke-miterlimit:10;}</style><linearGradient id="linear-gradient" x1="0" y1="9.5" x2="15.73" y2="9.5" gradientTransform="matrix(1, 0, 0, 1, 0, 0)" gradientUnits="userSpaceOnUse"><stop offset="0" stop-color="#6366f1"/><stop offset=".5" stop-color="#a855f7"/><stop offset="1" stop-color="#ec4899"/></linearGradient></defs><g id="Layer_1-2"><path class="cls-1" d="M3.2,3.37h-.83v-.83h.83v.83Zm0,6.55h-.83v-.83h.83v.83Zm0,6.55h-.83v-.83h.83v.83ZM5.57,3.37h.05v-.83h-.05v.83Zm0,6.55h.05v-.83h-.05v.83Zm0,6.55h.05v-.83h-.05v.83ZM1.32,.5H14.41c.45,0,.82,.37,.82,.82v3.27c0,.45-.37,.82-.82,.82H1.32c-.45,0-.82-.37-.82-.82V1.32c0-.45,.37-.82,.82-.82m0,6.55H14.41c.45,0,.82,.37,.82,.82v3.27c0,.45-.37,.82-.82,.82H1.32c-.45,0-.82-.37-.82-.82v-3.27c0-.45,.37-.82,.82-.82m0,6.55H14.41c.45,0,.82,.37,.82,.82v3.27c0,.45-.37,.82-.82,.82H1.32c-.45,0-.82-.37-.82-.82v-3.27c0-.45,.37-.82,.82-.82"/></g></svg>