<?xml version="1.0" encoding="UTF-8"?><svg id="Layer_2" xmlns="http://www.w3.org/2000/svg" xmlns:xlink="http://www.w3.org/1999/xlink" viewBox="0 0 20 19"><defs><style>.cls-1{fill:url(#linear-gradient);}</style><linearGradient id="linear-gradient" x1="0" y1="9.5" x2="20" y2="9.5" gradientTransform="matrix(1, 0, 0, 1, 0, 0)" gradientUnits="userSpaceOnUse"><stop offset="0" stop-color="#6366f1"/><stop offset=".5" stop-color="#a855f7"/><stop offset="1" stop-color="#ec4899"/></linearGradient></defs><g id="Layer_1-2"><path class="cls-1" d="M18,4c.58,0,1.05,.2,1.42,.59,.38,.41,.58,.86,.58,1.41v11c0,.55-.2,1-.58,1.41-.37,.39-.84,.59-1.42,.59H2c-.58,0-1.05-.2-1.42-.59-.38-.41-.58-.86-.58-1.41V6c0-.55,.2-1,.58-1.41,.37-.39,.84-.59,1.42-.59H6V2c0-.58,.2-1.05,.58-1.42,.37-.38,.84-.58,1.42-.58h4c.58,0,1.05,.2,1.42,.58,.38,.37,.58,.84,.58,1.42v2h4M2,6v11H18V6H2m10-2V2h-4v2h4Z"/></g></svg>