<?xml version="1.0" encoding="UTF-8"?><svg id="Layer_2" xmlns="http://www.w3.org/2000/svg" xmlns:xlink="http://www.w3.org/1999/xlink" viewBox="0 0 16 18"><defs><style>.cls-1{fill:url(#linear-gradient);}</style><linearGradient id="linear-gradient" x1="0" y1="9" x2="16" y2="9" gradientTransform="matrix(1, 0, 0, 1, 0, 0)" gradientUnits="userSpaceOnUse"><stop offset="0" stop-color="#6366f1"/><stop offset=".5" stop-color="#a855f7"/><stop offset="1" stop-color="#ec4899"/></linearGradient></defs><g id="Layer_1-2"><path class="cls-1" d="M8,0C3.58,0,0,1.79,0,4s3.58,4,8,4,8-1.79,8-4S12.42,0,8,0M0,6v3c0,2.21,3.58,4,8,4s8-1.79,8-4v-3c0,2.21-3.58,4-8,4S0,8.21,0,6m0,5v3c0,2.21,3.58,4,8,4s8-1.79,8-4v-3c0,2.21-3.58,4-8,4S0,13.21,0,11Z"/></g></svg>