<?xml version="1.0" encoding="UTF-8"?><svg id="Layer_2" xmlns="http://www.w3.org/2000/svg" xmlns:xlink="http://www.w3.org/1999/xlink" viewBox="0 0 16 20"><defs><style>.cls-1{fill:url(#linear-gradient);}.cls-2{fill:url(#linear-gradient-3);}.cls-3{fill:url(#linear-gradient-4);}.cls-4{fill:url(#linear-gradient-2);}</style><linearGradient id="linear-gradient" x1="0" y1="-398.02" x2="16" y2="-398.02" gradientTransform="translate(0 -388.02) scale(1 -1)" gradientUnits="userSpaceOnUse"><stop offset="0" stop-color="#6366f1"/><stop offset=".5" stop-color="#a855f7"/><stop offset="1" stop-color="#ec4899"/></linearGradient><linearGradient id="linear-gradient-2" x1="3" y1="15.08" x2="6.2" y2="15.08" gradientTransform="matrix(1, 0, 0, 1, 0, 0)" xlink:href="#linear-gradient"/><linearGradient id="linear-gradient-3" x1="6.31" y1="15.08" x2="8.99" y2="15.08" gradientTransform="matrix(1, 0, 0, 1, 0, 0)" xlink:href="#linear-gradient"/><linearGradient id="linear-gradient-4" x1="9.13" y1="15.08" x2="11.81" y2="15.08" gradientTransform="matrix(1, 0, 0, 1, 0, 0)" xlink:href="#linear-gradient"/></defs><g id="Layer_1-2"><g><path class="cls-1" d="M10,0H2C.9,0,0,.9,0,2V18c0,1.1,.9,2,2,2H14c1.1,0,2-.9,2-2V6L10,0m4,18H2V2h7V7h5v11"/><g><path class="cls-4" d="M4.85,16.9c-.26,0-.51-.05-.73-.14-.22-.09-.42-.22-.59-.39-.17-.17-.3-.36-.39-.58s-.14-.46-.14-.72,.05-.5,.14-.72,.22-.41,.39-.58c.17-.16,.36-.29,.59-.38,.22-.09,.47-.14,.73-.14,.28,0,.53,.04,.75,.13,.22,.09,.41,.21,.57,.37l-.53,.54c-.09-.1-.2-.18-.33-.24s-.28-.08-.46-.08c-.15,0-.29,.03-.42,.08s-.24,.12-.33,.22c-.09,.1-.17,.21-.21,.35s-.08,.29-.08,.45,.03,.32,.08,.45,.12,.25,.21,.35c.09,.1,.2,.17,.33,.23s.27,.08,.42,.08c.18,0,.34-.03,.47-.08,.13-.06,.25-.13,.34-.24l.54,.54c-.17,.16-.36,.28-.58,.37-.22,.09-.48,.13-.77,.13Z"/><path class="cls-2" d="M7.63,16.9c-.29,0-.54-.05-.75-.14-.21-.09-.4-.24-.57-.43l.51-.51c.11,.13,.24,.23,.38,.3,.14,.07,.3,.11,.48,.11,.16,0,.29-.03,.38-.09,.09-.06,.14-.15,.14-.25,0-.09-.03-.17-.09-.23-.06-.06-.14-.11-.24-.15-.1-.04-.21-.08-.32-.12-.12-.04-.23-.08-.35-.14-.12-.05-.23-.12-.33-.19-.1-.08-.18-.17-.24-.29-.06-.12-.09-.27-.09-.45,0-.22,.05-.41,.16-.57,.1-.16,.25-.28,.44-.36,.19-.08,.41-.12,.64-.12s.48,.04,.68,.13,.37,.2,.5,.35l-.51,.52c-.11-.11-.21-.19-.32-.25s-.23-.08-.36-.08-.25,.03-.33,.08c-.08,.05-.12,.13-.12,.22,0,.09,.03,.16,.09,.21,.06,.05,.14,.1,.24,.14,.1,.04,.21,.08,.33,.12,.12,.04,.24,.09,.35,.14,.12,.05,.23,.12,.32,.2s.18,.19,.24,.31c.06,.12,.09,.28,.09,.46,0,.34-.12,.6-.36,.79-.24,.19-.57,.29-1,.29Z"/><path class="cls-3" d="M10.46,16.9c-.29,0-.54-.05-.75-.14-.21-.09-.4-.24-.57-.43l.51-.51c.11,.13,.24,.23,.38,.3,.14,.07,.3,.11,.48,.11,.16,0,.29-.03,.38-.09,.09-.06,.14-.15,.14-.25,0-.09-.03-.17-.09-.23-.06-.06-.14-.11-.24-.15-.1-.04-.21-.08-.32-.12-.12-.04-.23-.08-.35-.14-.12-.05-.23-.12-.33-.19-.1-.08-.18-.17-.24-.29-.06-.12-.09-.27-.09-.45,0-.22,.05-.41,.16-.57,.1-.16,.25-.28,.44-.36,.19-.08,.41-.12,.64-.12s.48,.04,.68,.13,.37,.2,.5,.35l-.51,.52c-.11-.11-.21-.19-.32-.25s-.23-.08-.36-.08-.25,.03-.33,.08c-.08,.05-.12,.13-.12,.22,0,.09,.03,.16,.09,.21,.06,.05,.14,.1,.24,.14,.1,.04,.21,.08,.33,.12,.12,.04,.24,.09,.35,.14,.12,.05,.23,.12,.32,.2s.18,.19,.24,.31c.06,.12,.09,.28,.09,.46,0,.34-.12,.6-.36,.79-.24,.19-.57,.29-1,.29Z"/></g></g></g></svg>