<?xml version="1.0" encoding="UTF-8"?><svg id="Layer_2" xmlns="http://www.w3.org/2000/svg" xmlns:xlink="http://www.w3.org/1999/xlink" viewBox="0 0 20.02 19.37"><defs><style>.cls-1{fill:url(#linear-gradient);}</style><linearGradient id="linear-gradient" x1="0" y1="9.69" x2="20.02" y2="9.69" gradientTransform="matrix(1, 0, 0, 1, 0, 0)" gradientUnits="userSpaceOnUse"><stop offset="0" stop-color="#6366f1"/><stop offset=".5" stop-color="#a855f7"/><stop offset="1" stop-color="#ec4899"/></linearGradient></defs><g id="Layer_1-2"><path class="cls-1" d="M13.42,19.37h-.19c-.12-.05-.22-.15-.26-.27l-2.22-5.8c-.09-.24,.03-.51,.26-.61,.71-.26,1.28-.82,1.58-1.49,.64-1.43,0-3.1-1.43-3.74-1.43-.64-3.1,0-3.74,1.41-.3,.71-.32,1.5-.05,2.19,.3,.74,.89,1.31,1.64,1.59,.24,.09,.37,.36,.28,.61l-2.28,5.8c-.04,.12-.13,.22-.25,.27-.12,.04-.25,.04-.36,0C1.25,17.34-1.32,11.55,.67,6.4,2.66,1.25,8.45-1.32,13.6,.67c2.47,.96,4.46,2.85,5.54,5.27,1.09,2.43,1.16,5.18,.2,7.65-1.01,2.66-3.1,4.78-5.75,5.78h-.17M10.01,.96C5.04,.83,.91,4.76,.78,9.73c-.09,3.72,2.11,7.11,5.55,8.54l1.89-4.9c-1.83-1-2.52-3.28-1.53-5.11,.99-1.83,3.28-2.51,5.11-1.53,1.83,.99,2.52,3.28,1.53,5.11-.35,.65-.88,1.18-1.53,1.53l1.89,4.93c2.18-.98,3.89-2.77,4.76-5,1.84-4.62-.4-9.85-5.02-11.7-1.09-.43-2.25-.65-3.42-.64Z"/></g></svg>