<?xml version="1.0" encoding="UTF-8"?><svg id="Layer_2" xmlns="http://www.w3.org/2000/svg" xmlns:xlink="http://www.w3.org/1999/xlink" viewBox="0 0 16 20"><defs><style>.cls-1{fill:url(#linear-gradient);}</style><linearGradient id="linear-gradient" x1="0" y1="-19" x2="16" y2="-19" gradientTransform="translate(0 -9) scale(1 -1)" gradientUnits="userSpaceOnUse"><stop offset="0" stop-color="#6366f1"/><stop offset=".5" stop-color="#a855f7"/><stop offset="1" stop-color="#ec4899"/></linearGradient></defs><g id="Layer_1-2"><path class="cls-1" d="M10,0H2C.9,0,0,.9,0,2V18c0,1.1,.9,2,2,2H14c1.1,0,2-.9,2-2V6L10,0m4,18H2V2h7V7h5v11M5.5,13.6l2.1,2.1-1.2,1.3-3.4-3.4,3.4-3.3,1.3,1.3-2.2,2m7.5,0l-3.4,3.4-1.3-1.3,2.1-2.1-2.1-2.1,1.3-1.3,3.4,3.4Z"/></g></svg>