<?xml version="1.0" encoding="UTF-8"?><svg id="Layer_2" xmlns="http://www.w3.org/2000/svg" xmlns:xlink="http://www.w3.org/1999/xlink" viewBox="0 0 17 22"><defs><style>.cls-1{fill:none;stroke:url(#linear-gradient);stroke-miterlimit:10;}</style><linearGradient id="linear-gradient" x1="0" y1="11" x2="17" y2="11" gradientTransform="matrix(1, 0, 0, 1, 0, 0)" gradientUnits="userSpaceOnUse"><stop offset="0" stop-color="#6366f1"/><stop offset=".5" stop-color="#a855f7"/><stop offset="1" stop-color="#ec4899"/></linearGradient></defs><g id="Layer_1-2"><path class="cls-1" d="M8.5,16.5c1.1,0,2-.9,2-2s-.9-2-2-2-2,.9-2,2,.9,2,2,2M14.5,7.5c1.1,0,2,.9,2,2v10c0,1.1-.9,2-2,2H2.5c-1.1,0-2-.9-2-2V9.5c0-1.11,.9-2,2-2h1v-2C3.5,2.74,5.74,.5,8.5,.5s5,2.24,5,5v2h1M8.5,2.5c-1.66,0-3,1.34-3,3v2h6v-2c0-1.66-1.34-3-3-3Z"/></g></svg>