<?xml version="1.0" encoding="UTF-8"?><svg id="Layer_2" xmlns="http://www.w3.org/2000/svg" xmlns:xlink="http://www.w3.org/1999/xlink" viewBox="0 0 20 20"><defs><style>.cls-1{fill:url(#linear-gradient);}</style><linearGradient id="linear-gradient" x1="0" y1="10" x2="20" y2="10" gradientTransform="matrix(1, 0, 0, 1, 0, 0)" gradientUnits="userSpaceOnUse"><stop offset="0" stop-color="#6366f1"/><stop offset=".5" stop-color="#a855f7"/><stop offset="1" stop-color="#ec4899"/></linearGradient></defs><g id="Layer_1-2"><path class="cls-1" d="M0,0H6V2H14V0h6V6h-2V14h2v6h-6v-2H6v2H0v-6H2V6H0V0M14,6v-2H6v2h-2V14h2v2H14v-2h2V6h-2M2,2v2h2V2H2m14,0v2h2V2h-2M2,16v2h2v-2H2m14,0v2h2v-2h-2Z"/></g></svg>