<?xml version="1.0" encoding="UTF-8"?><svg id="Layer_2" xmlns="http://www.w3.org/2000/svg" xmlns:xlink="http://www.w3.org/1999/xlink" viewBox="0 0 20 18.06"><defs><style>.cls-1{fill:url(#linear-gradient);}</style><linearGradient id="linear-gradient" x1="0" y1="9.03" x2="20" y2="9.03" gradientTransform="matrix(1, 0, 0, 1, 0, 0)" gradientUnits="userSpaceOnUse"><stop offset="0" stop-color="#6366f1"/><stop offset=".5" stop-color="#a855f7"/><stop offset="1" stop-color="#ec4899"/></linearGradient></defs><g id="Layer_1-2"><path class="cls-1" d="M0,18.06v-2s5-2,10-2,10,2,10,2v2H0M9.3,5.16C8.1,1.26,2,2.16,2,2.16c0,0,.2,7.8,5.9,6.6-.4-2.9-1.9-3.7-1.9-3.7,2.8,0,3,3.4,3,3.4v4.6h2v-4.2s0-3.9,3-4.9c0,0-2,3-2,5C19,9.66,19,.06,19,.06,19,.06,10.1-.94,9.3,5.16Z"/></g></svg>