<?xml version="1.0" encoding="UTF-8"?><svg id="Layer_2" xmlns="http://www.w3.org/2000/svg" xmlns:xlink="http://www.w3.org/1999/xlink" viewBox="0 0 22 20.93"><defs><style>.cls-1{fill:url(#linear-gradient);}</style><linearGradient id="linear-gradient" x1="0" y1="10.46" x2="22" y2="10.46" gradientTransform="matrix(1, 0, 0, 1, 0, 0)" gradientUnits="userSpaceOnUse"><stop offset="0" stop-color="#6366f1"/><stop offset=".5" stop-color="#a855f7"/><stop offset="1" stop-color="#ec4899"/></linearGradient></defs><g id="Layer_1-2"><path class="cls-1" d="M22,10.46l-2.44-2.78,.34-3.68-3.61-.82-1.89-3.18-3.4,1.46L7.6,0l-1.89,3.18-3.61,.81,.34,3.68L0,10.46l2.44,2.78-.34,3.69,3.61,.82,1.89,3.18,3.4-1.47,3.4,1.46,1.89-3.18,3.61-.82-.34-3.68,2.44-2.78m-13,5l-4-4,1.41-1.41,2.59,2.58,6.59-6.59,1.41,1.42L9,15.46Z"/></g></svg>